<svg width="400" height="512" viewBox="0 0 400 512" fill="none" xmlns="http://www.w3.org/2000/svg">
<g clip-path="url(#clip0_142_116)">
<path d="M0 0V419.74L199.77 512L400 419.74V0H0Z" fill="#27E2A4"/>
<path d="M0 339.02V378.94L199.77 471.2L400 378.94V339.02L199.77 431.28L0 339.02Z" fill="white"/>
<path d="M293.6 249.27C293.6 263.17 290.78 275.214 285.14 285.4C279.724 295.33 272.161 303.926 263 310.56C253.685 317.242 243.266 322.232 232.22 325.3C220.921 328.518 209.229 330.15 197.48 330.15C186.141 330.159 174.842 328.816 163.82 326.15C153.305 323.674 143.229 319.607 133.94 314.09C124.869 308.632 116.876 301.555 110.36 293.21C103.64 284.704 98.6002 274.444 95.2402 262.43L151.4 247.67C153.8 256.077 158.72 263.457 166.16 269.81C173.6 276.164 183.08 279.344 194.6 279.35C199.041 279.339 203.46 278.734 207.74 277.55C212.007 276.445 216.034 274.564 219.62 272C223.195 269.378 226.145 265.997 228.26 262.1C230.54 258.027 231.68 252.987 231.68 246.98C231.68 240.5 230.18 235.1 227.18 230.78C224.138 226.423 220.054 222.896 215.3 220.52C210.025 217.885 204.381 216.064 198.56 215.12C192.378 214.045 186.115 213.503 179.84 213.5H163.64V169.59H181.28C186.825 169.607 192.362 169.186 197.84 168.33C202.814 167.582 207.623 165.99 212.06 163.62C216.142 161.434 219.608 158.257 222.14 154.38C224.66 150.52 225.92 145.45 225.92 139.17C225.92 129.99 222.68 122.99 216.2 118.17C209.766 113.353 201.917 110.803 193.88 110.92C185.701 110.761 177.73 113.503 171.38 118.66C164.984 123.916 160.608 131.229 159 139.35L102.84 126.35C105.665 116.125 110.417 106.533 116.84 98.0903C123.002 90.1556 130.501 83.357 139 78.0003C147.636 72.5492 157.041 68.4234 166.9 65.7603C177.002 63.0006 187.428 61.6082 197.9 61.6203C209.023 61.6033 220.099 63.0593 230.84 65.9503C241.082 68.6354 250.757 73.1441 259.4 79.2603C267.738 85.2014 274.68 92.8902 279.74 101.79C284.9 110.81 287.48 121.447 287.48 133.7C287.48 147.887 283.46 159.847 275.42 169.58C267.508 179.231 256.726 186.11 244.64 189.22V190.3C251.637 191.899 258.326 194.632 264.44 198.39C270.28 201.969 275.507 206.463 279.92 211.7C284.238 216.853 287.647 222.703 290 229C292.421 235.482 293.64 242.351 293.6 249.27Z" fill="white"/>
</g>
<defs>
<clipPath id="clip0_142_116">
<rect width="400" height="512" fill="white"/>
</clipPath>
</defs>
</svg>
