<svg width="400" height="512" viewBox="0 0 400 512" fill="none" xmlns="http://www.w3.org/2000/svg">
<g clip-path="url(#clip0_142_108)">
<path d="M0 0V419.74L199.77 512L400 419.74V0H0Z" fill="#27E2A4"/>
<path d="M0 339.02V378.94L199.77 471.2L400 378.94V339.02L199.77 431.28L0 339.02Z" fill="white"/>
<path d="M108.2 323.31V273L207.56 183.15C213.356 177.705 218.437 171.546 222.68 164.82C226.528 158.563 228.525 151.345 228.44 144C228.44 134.9 225.56 127.533 219.8 121.9C214.04 116.267 206.373 113.45 196.8 113.45C186.72 113.45 178.5 116.99 172.14 124.07C165.78 131.15 161.986 140.46 160.76 152L102.76 144.08C103.945 131.945 107.556 120.172 113.38 109.46C118.831 99.5618 126.098 90.7787 134.8 83.57C143.612 76.3531 153.681 70.8239 164.5 67.26C175.946 63.4511 187.937 61.5359 200 61.59C211.561 61.5676 223.07 63.1425 234.2 66.27C244.846 69.2022 254.855 74.0849 263.72 80.67C272.375 87.1676 279.451 95.5357 284.42 105.15C289.58 114.997 292.16 126.517 292.16 139.71C292.274 148.069 291.059 156.393 288.56 164.37C286.22 171.577 282.888 178.422 278.66 184.71C274.437 190.983 269.614 196.83 264.26 202.17C258.86 207.57 253.28 212.903 247.52 218.17L188.52 270.73H292.52V323.29L108.2 323.31Z" fill="white"/>
</g>
<defs>
<clipPath id="clip0_142_108">
<rect width="400" height="512" fill="white"/>
</clipPath>
</defs>
</svg>
