<svg width="400" height="512" viewBox="0 0 400 512" fill="none" xmlns="http://www.w3.org/2000/svg">
<g clip-path="url(#clip0_142_152)">
<path d="M0 0V419.74L199.77 512L400 419.74V0H0Z" fill="#FF0062"/>
<path d="M293.6 249.27C293.6 263.17 290.78 275.213 285.14 285.4C279.724 295.329 272.161 303.925 263 310.56C253.685 317.242 243.266 322.232 232.22 325.3C220.921 328.517 209.229 330.15 197.48 330.15C186.141 330.158 174.842 328.815 163.82 326.15C153.305 323.674 143.229 319.607 133.94 314.09C124.869 308.632 116.876 301.554 110.36 293.21C103.64 284.703 98.6002 274.443 95.2402 262.43L151.4 247.67C153.8 256.076 158.72 263.456 166.16 269.81C173.6 276.163 183.08 279.343 194.6 279.35C199.041 279.338 203.46 278.733 207.74 277.55C212.007 276.444 216.034 274.563 219.62 272C223.195 269.377 226.145 265.996 228.26 262.1C230.54 258.026 231.68 252.986 231.68 246.98C231.68 240.5 230.18 235.1 227.18 230.78C224.138 226.423 220.054 222.896 215.3 220.52C210.025 217.884 204.381 216.063 198.56 215.12C192.378 214.045 186.115 213.503 179.84 213.5H163.64V169.59H181.28C186.825 169.606 192.362 169.185 197.84 168.33C202.814 167.582 207.623 165.989 212.06 163.62C216.142 161.434 219.608 158.256 222.14 154.38C224.66 150.52 225.92 145.45 225.92 139.17C225.92 129.99 222.68 122.99 216.2 118.17C209.766 113.353 201.917 110.803 193.88 110.92C185.701 110.76 177.73 113.503 171.38 118.66C164.984 123.916 160.608 131.228 159 139.35L102.84 126.35C105.665 116.124 110.417 106.532 116.84 98.0898C123.002 90.1551 130.501 83.3565 139 77.9998C147.636 72.5487 157.041 68.4229 166.9 65.7598C177.002 63.0001 187.428 61.6077 197.9 61.6198C209.023 61.6028 220.099 63.0588 230.84 65.9498C241.082 68.635 250.757 73.1437 259.4 79.2598C267.738 85.201 274.68 92.8897 279.74 101.79C284.9 110.81 287.48 121.446 287.48 133.7C287.48 147.886 283.46 159.846 275.42 169.58C267.508 179.23 256.726 186.11 244.64 189.22V190.3C251.637 191.898 258.326 194.631 264.44 198.39C270.28 201.968 275.507 206.462 279.92 211.7C284.238 216.853 287.647 222.703 290 229C292.421 235.482 293.64 242.351 293.6 249.27Z" fill="white"/>
<path d="M0 339.02V378.94L199.77 471.2L400 378.94V339.02L199.77 431.28L0 339.02Z" fill="white"/>
</g>
<defs>
<clipPath id="clip0_142_152">
<rect width="400" height="512" fill="white"/>
</clipPath>
</defs>
</svg>
