<svg width="400" height="512" viewBox="0 0 400 512" fill="none" xmlns="http://www.w3.org/2000/svg">
<g clip-path="url(#clip0_142_120)">
<path d="M0 0V419.74L199.77 512L400 419.74V0H0Z" fill="#00B4FC"/>
<path d="M293.24 239.07C293.24 254.684 290.48 268.184 284.96 279.57C279.793 290.531 272.226 300.19 262.82 307.83C253.466 315.341 242.779 321.02 231.32 324.57C208.81 331.622 184.739 331.997 162.02 325.65C151.957 322.829 142.371 318.522 133.58 312.87C125.115 307.428 117.669 300.544 111.58 292.53C105.412 284.399 100.832 275.178 98.0801 265.35L153.16 248.43C155.679 257.163 160.911 264.868 168.1 270.43C175.433 276.19 184.133 279.07 194.2 279.07C203.973 279.267 213.492 275.945 221.02 269.71C228.607 263.457 232.4 254.22 232.4 242C232.4 234.574 230.84 228.334 227.72 223.28C224.715 218.36 220.581 214.226 215.66 211.22C210.502 208.135 204.832 206.001 198.92 204.92C192.751 203.727 186.483 203.124 180.2 203.12C169.752 203.252 159.334 204.276 149.06 206.18C138.461 207.952 128.04 210.663 117.92 214.28L124 68.4302H280.28V120.27H177.68L175.52 160.59C179.718 159.572 183.992 158.903 188.3 158.59C192.967 158.23 197.227 158.05 201.08 158.05C213.259 157.961 225.386 159.645 237.08 163.05C247.792 166.118 257.773 171.322 266.42 178.35C274.746 185.28 281.432 193.968 286 203.79C290.827 213.87 293.24 225.63 293.24 239.07Z" fill="white"/>
<path d="M0 339.02V378.94L199.77 471.2L400 378.94V339.02L199.77 431.28L0 339.02Z" fill="white"/>
</g>
<defs>
<clipPath id="clip0_142_120">
<rect width="400" height="512" fill="white"/>
</clipPath>
</defs>
</svg>
